<?xml version="1.0" encoding="UTF-8"?>
<svg width="300pt" height="300pt" version="1.1" viewBox="0 0 700 700" xmlns="http://www.w3.org/2000/svg" xmlns:xlink="http://www.w3.org/1999/xlink">

 <g>
  <path d="m110.25 77.316h11.129v45.891c0 1.4844 0.58984 2.9102 1.6406 3.9609 1.0508 1.0508 2.4766 1.6406 3.9609 1.6367h52.668c1.4883 0.003906 2.9102-0.58594 3.9609-1.6367s1.6406-2.4766 1.6406-3.9609v-46.984h62.762c0.16406 2.4727 0.63672 4.918 1.4141 7.2695 0.29297 1.9844 0.48047 3.9805 0.57031 5.9844 0.55078 8.8555 1.5547 17.68 3.0078 26.434 3.2734 14.988 9.1055 29.297 17.23 42.309 2.4414 9.5039 5.5781 18.82 9.3789 27.867 2.8242 7.0938 6.9688 13.586 12.211 19.137 3.8086 3.1367 6.0117 7.8125 6.0156 12.746 0.15234 5.1367 0.71094 10.254 1.6719 15.301l0.035156 0.19922c0.58984 3.4766 1.2539 7.1055 1.9922 11.012 2.8438 12.629 4.4375 25.512 4.7578 38.453-0.66797 12.617-2.7461 25.117-6.1914 37.273-1.875 7.7227-3.8242 15.707-5.4648 24.953-2.4922 14.016-4.293 35.734-5.7422 53.184-1.0703 12.945-2.082 25.168-2.9414 28.598-2.9961 17.188-3.9688 34.664-2.8984 52.078 0.80078 8.3359 0.46484 16.738-0.99219 24.984l-0.003906 0.003906v0.007813c-0.55469 2.582-1.3555 5.1055-2.3945 7.5312-1.4219 3.0039-3.0625 5.8984-4.918 8.6562-3.2461 4.0664-5.3398 8.9297-6.0586 14.082 0 11.078 13.617 11.078 18.746 11.078 11.344 0 18.754-3.7891 22.652-11.582v0.003906c3.9297-6.7617 5.2578-14.727 3.7344-22.395-1.3633-8.4531-1.9219-17.02-1.668-25.578 0.56641-4.7109 1.7734-9.3242 3.5898-13.711 3.3984-8.3945 5.3672-17.297 5.8242-26.344l-0.003907-3.1719c-0.03125-13.027-0.046874-20.199 4.8555-29.113 1.6562-3.0078 4.3477-7.1875 7.4648-12.02v-0.003906c5.8516-8.7344 11.23-17.777 16.109-27.09 4.8789 9.3125 10.258 18.355 16.109 27.09 3.1172 4.8359 5.8086 9.0117 7.4648 12.027 5.4414 9.8867 6.3594 16.477 6.3594 31.254h0.003906c0.33203 8.1602 1.9023 16.223 4.6484 23.914 1.9414 5.125 3.043 10.531 3.2617 16.008-0.16406 2.6484-0.24219 5.6719-0.32422 8.8008h0.003906c0.050781 6.0078-0.40234 12.008-1.3555 17.941-1.5234 7.668-0.19531 15.629 3.7344 22.391 3.8984 7.793 11.309 11.582 22.652 11.582 5.1289 0 18.746 0 18.746-11.078v-0.003906c-0.71875-5.1523-2.8086-10.016-6.0586-14.082-1.8555-2.7578-3.4961-5.6523-4.918-8.6562-2.8828-6.7266-4.4531-14.516-3.3906-32.527 1.0703-17.414 0.097656-34.891-2.8984-52.078-0.85937-3.4297-1.8711-15.652-2.9414-28.598-1.4492-17.449-3.25-39.168-5.7422-53.184-1.6406-9.2461-3.5859-17.23-5.4648-24.953-3.4453-12.156-5.5234-24.656-6.1914-37.273 0.32031-12.941 1.9141-25.824 4.7578-38.453 0.73828-3.9062 1.4023-7.5352 1.9922-11.012l0.035156-0.19922c0.96094-5.0469 1.5195-10.164 1.6719-15.301 0.003906-4.9336 2.207-9.6094 6.0156-12.746 5.2422-5.5508 9.3867-12.043 12.211-19.137 3.8008-9.0469 6.9375-18.363 9.3789-27.867 8.125-13.012 13.957-27.32 17.23-42.309 1.457-8.7539 2.4609-17.578 3.0078-26.434 0.16797-2.4648 0.36719-5.2539 0.50781-5.8203h0.003907c0.79688-2.4062 1.2891-4.9023 1.4609-7.4336h62.773v46.984c0 1.4844 0.58984 2.9102 1.6406 3.9609s2.4727 1.6406 3.9609 1.6367h52.668c1.4844 0.003906 2.9102-0.58594 3.9609-1.6367 1.0508-1.0508 1.6406-2.4766 1.6406-3.9609v-45.891h11.129c3.0898 0 5.5977-2.5039 5.5977-5.5977s-2.5078-5.6016-5.5977-5.6016h-11.129v-45.883c0-1.4844-0.58984-2.9102-1.6406-3.9609-1.0508-1.0508-2.4766-1.6406-3.9609-1.6367h-52.668c-1.4883-0.003907-2.9102 0.58594-3.9609 1.6367-1.0508 1.0508-1.6406 2.4766-1.6406 3.9609v44.789h-63.68c-0.23047-0.72656-0.53125-1.4336-0.89453-2.1055-2.5898-4.0703-6.6055-7.0234-11.262-8.2852-2.5078-0.85547-5.2617-0.625-7.5898 0.64063-0.69922-0.09375-1.3906-0.22656-2.0742-0.39844-1.293-0.36719-2.625-0.59766-3.9688-0.68359-3.9414-0.019531-7.6836 1.75-10.172 4.8047-1.3633 1.7383-2.1953 3.832-2.3945 6.0273h-125.42c-0.19922-2.1953-1.0312-4.2891-2.3945-6.0273-2.4844-3.0625-6.2266-4.832-10.172-4.8047-1.3438 0.085938-2.6758 0.31641-3.9688 0.68359-0.58594 0.09375-1.1523 0.27344-1.6797 0.53516-2.4414-1.3438-5.3281-1.625-7.9844-0.77734-4.6562 1.2617-8.6719 4.2148-11.262 8.2852-0.36328 0.67188-0.66406 1.3789-0.89453 2.1055h-63.68v-44.789c0-1.4844-0.58984-2.9102-1.6406-3.9609-1.0508-1.0508-2.4727-1.6406-3.9609-1.6367h-52.668c-1.4844-0.003907-2.9102 0.58594-3.9609 1.6367-1.0508 1.0508-1.6406 2.4766-1.6406 3.9609v45.883h-11.129c-3.0898 0-5.5977 2.5078-5.5977 5.6016s2.5078 5.5977 5.5977 5.5977zm415.69-51.48h41.469v91.77h-41.469zm-247.64 59.527 0.03125-0.042969h0.003906c2.2305-2.8672 4.2188-5.9062 5.9531-9.0938h131.41c1.7344 3.1875 3.7227 6.2266 5.9531 9.0938l0.03125 0.042969h0.003906c0.25 9.5859-1.3125 19.133-4.6055 28.137-4.2109 10.77-9.2188 23.93-10.605 27.562-6.2969 7.0664-11.68 14.895-16.016 23.309-1.6016 1.0898-4.4531 3.0781-7.668 5.4414l-0.16016 0.11719c-4.5469 3.2695-8.8828 6.8203-12.988 10.633-0.42969-0.17188-0.81641-0.44141-1.125-0.78906-0.13672-0.16406-0.54688-0.66797-0.35938-2.2383l-0.003906 0.003906c0.50781-3.3047 1.7148-6.4609 3.5391-9.2578 2.5-4.1055 4.2812-8.6055 5.2734-13.309 2.0508-10.285 3.5859-28.777-9.1367-37.02l-0.003907 0.003906c-5.2734-3.5352-11.48-5.4219-17.828-5.4219-6.3516 0-12.559 1.8867-17.832 5.4219h-0.003906c-12.727 8.2422-11.188 26.73-9.1367 37.02l-0.003906-0.003906c0.99219 4.7031 2.7734 9.2031 5.2734 13.309 1.8242 2.8008 3.0312 5.957 3.5391 9.2617 0.1875 1.5625-0.22266 2.0664-0.35938 2.2305h-0.003907c-0.3125 0.34375-0.69531 0.61719-1.125 0.79297-4.0977-3.8125-8.4336-7.3633-12.977-10.629l-0.17969-0.13281c-3.2109-2.3633-6.0586-4.3438-7.6562-5.4336h-0.003906c-4.3359-8.4141-9.7188-16.242-16.016-23.309-1.3828-3.6328-6.3945-16.793-10.605-27.562-3.293-9.0039-4.8555-18.551-4.6055-28.137zm76.805 132.14c-1.3125 1.4375-3.168 2.2578-5.1133 2.2578s-3.8008-0.82031-5.1133-2.2578c-5.1875-5.4453-6.8672-19.367-6.8281-28.637 2.7461-2.0742 4.5078-5.1992 4.8633-8.625 2.5703 0.78906 5.2422 1.1992 7.9297 1.2188 0.22266 0 0.44922 0 0.67969-0.003907v-0.003906c1.9023-0.046875 3.793-0.3125 5.6367-0.78516 0.42578 3.2617 2.1445 6.2188 4.7734 8.1992 0.039063 9.2695-1.6406 23.191-6.8281 28.637zm-16.859-90.141h0.003906c3.4609-2.3633 7.5547-3.625 11.746-3.625 4.1875 0 8.2812 1.2617 11.742 3.625 7.6523 4.9492 5.1797 20.711 4.2422 25.426l0.003907-0.003906c-0.78516 3.5586-2.1641 6.957-4.082 10.055-0.37109 0.67188-0.75391 1.3789-1.1328 2.0938l-0.035156 0.042968c-1.9609 3.3672-5.6016 5.3945-9.4961 5.2812-4.7109 0.29688-9.2578-1.7734-12.129-5.5234-0.34375-0.64062-0.6875-1.2891-1.0273-1.8945-1.918-3.0977-3.2969-6.4961-4.082-10.055-0.93359-4.7109-3.4062-20.473 4.2461-25.422zm-13.973 63.043c0.69531 0.79297 1.6016 1.3711 2.6133 1.6758 0.26562 9.0547 1.9258 24.785 9.8789 33.141l-0.003907-0.003906c3.4258 3.6641 8.2148 5.7422 13.23 5.7422s9.8047-2.0781 13.23-5.7422c7.9492-8.3516 9.6133-24.082 9.8789-33.137l-0.003906 0.003907c1.0156-0.30078 1.9219-0.88281 2.6133-1.6797 1.1094-1.2266 2.293-2.3828 3.543-3.4688-1.1875 22.848 3.3867 39.926 9.6836 47.367-0.46875 2.625-0.96484 5.3203-1.4922 8.0938h0.003906c-3.0156 13.406-4.6758 27.082-4.957 40.816 0.19531 6.4414 0.875 12.855 2.0352 19.195-9.7539 2.7109-19.895 3.7578-29.996 3.0898l-4.5391-0.015625-4.5391 0.015625v0.003906c-10.102 0.67188-20.242-0.375-29.996-3.0938 1.1602-6.3398 1.8398-12.754 2.0352-19.191-0.28125-13.738-1.9414-27.414-4.957-40.82-0.52344-2.7773-1.0234-5.4727-1.4922-8.0938 6.3008-7.4375 10.875-24.52 9.6836-47.367h0.003906c1.25 1.0859 2.4336 2.2422 3.543 3.4688zm-24.207 338.37c-1.3984 2.8008-3.8984 5.3906-12.633 5.3906v0.003907c-2.4727 0.11328-4.9492-0.09375-7.3711-0.62109 1.1758-2.5625 2.5625-5.0234 4.1523-7.3555 2.1758-3.2578 4.0977-6.6797 5.7422-10.234 0.51562-1.1992 0.98438-2.4531 1.4297-3.75v-0.003906c2.1641 0.37891 4.3555 0.57812 6.5547 0.59766 1.5664 0.003907 3.1289-0.11328 4.6797-0.33984 0.09375 0.48437 0.17969 0.99219 0.28516 1.4492 0.91797 5.1367-0.09375 10.43-2.8398 14.863zm16.539-120.7c-6.3008 11.445-6.2773 20.633-6.2461 34.535l0.003906 3.1484h0.003906c-0.50781 7.793-2.2656 15.453-5.207 22.684-2.3008 5.5352-3.7188 11.398-4.207 17.371 0 5.0703 0.070312 10.461 0.37109 15.523h0.003907c-2.4727 0.35937-4.9883 0.33203-7.4531-0.082032 0.82422-7.6016 0.94531-15.266 0.35938-22.891-0.98828-16.277-0.125-32.617 2.5781-48.699 1.625-10.066 2.707-20.211 3.2461-30.395 0.23828-2.8945 0.49609-5.9336 0.75391-9.0078 7.082 3.4258 14.625 5.8125 22.391 7.0898-2.6836 4.168-5.0039 7.8281-6.5977 10.723zm33.387-54.387c-2.5352 0-4.7578 1.7031-5.4102 4.1562-3.625 10.316-8.582 20.113-14.754 29.141-9.8398-0.96484-19.359-4.0117-27.934-8.9336 1.0664-11.422 2.3008-22.66 3.7695-30.93 1.582-8.9023 3.4844-16.711 5.3203-24.266 0.76953-3.1641 1.5273-6.2852 2.2422-9.4062 10.52 2.7812 21.418 3.8828 32.281 3.2539l4.4844-0.015625 4.4844 0.015625c1.4492 0.003906 2.875 0.011719 4.293 0.011719 9.4414 0.375 18.887-0.72656 27.988-3.2695 0.71484 3.1211 1.4727 6.2422 2.2422 9.4102 1.8359 7.5508 3.7422 15.363 5.3203 24.266 1.4688 8.2695 2.7031 19.508 3.7695 30.93-8.5742 4.9219-18.094 7.9688-27.934 8.9336-6.1719-9.0273-11.133-18.824-14.758-29.141-0.64844-2.4531-2.8711-4.1562-5.4062-4.1562zm33.387 54.391c-1.5938-2.8984-3.9141-6.5586-6.5977-10.727 7.7656-1.2734 15.309-3.6641 22.391-7.0898 0.26172 3.0781 0.51562 6.1133 0.75391 9.0078 0.53906 10.184 1.6211 20.328 3.2461 30.395 2.7031 16.082 3.5664 32.422 2.5781 48.699-0.58984 7.668-0.46484 15.375 0.375 23.02-2.5352 0.49219-5.1328 0.51172-7.6758 0.0625 0.11719-2.5391 0.20312-5.125 0.26953-7.707 0.078126-2.9844 0.14844-5.875 0.30078-8.4062-0.058594-6.8242-1.3242-13.586-3.7344-19.969-2.4023-6.6328-3.8008-13.586-4.1562-20.633 0-15.918-1.0781-24.527-7.75-36.652zm29.172 126.09c-8.7344 0-11.234-2.5938-12.633-5.3906-2.7461-4.4336-3.7578-9.7227-2.8398-14.859 0.09375-0.40234 0.14453-0.88281 0.22266-1.3086v0.003906c1.5625 0.25 3.1367 0.375 4.7148 0.37109 2.2227-0.019531 4.4375-0.24219 6.6172-0.66406 0.43359 1.2578 0.89453 2.4727 1.3945 3.6406 1.6445 3.5547 3.5664 6.9766 5.7422 10.234 1.5898 2.332 2.9766 4.793 4.1523 7.3555-2.4219 0.52734-4.8984 0.73438-7.3711 0.62109zm11.277-468.15-0.003907 0.003906c0.26562-0.29688 0.60156-0.51562 0.97656-0.64062 0.58594 0.082032 1.168 0.20312 1.7383 0.36328 3.0664 1.0391 6.4062 0.92969 9.3945-0.32031 1.7891 0.50781 3.3672 1.5742 4.5 3.0469 0.77344 3.6484 0.66406 7.4297-0.32812 11.027-0.85938 2.9883-1.293 6.082-1.2852 9.1914-0.52734 8.5078-1.4883 16.98-2.8828 25.387-3.1719 13.805-8.6328 26.98-16.164 38.98-0.38281 0.60156-0.64844 1.2695-0.78906 1.9688-2.2656 9.1992-5.2773 18.199-9.0117 26.906-2.3633 5.8984-5.8281 11.293-10.215 15.895-3.8438 3.75-6.6328 8.4492-8.082 13.625-1.8398-11.258-1.9531-22.727-0.32812-34.016 2.7148-1.957 5.1523-3.6445 6.6602-4.6523 0.90625-0.60156 1.6172-1.4531 2.0469-2.457 4.1055-8.168 9.293-15.746 15.422-22.531 0.47656-0.51953 0.84766-1.125 1.0977-1.7852 0.003907-0.003906 6.0195-15.855 10.938-28.426 4.2773-10.941 7.6836-32.895 3.6484-38.254l-0.61328-0.80859v-0.003906c-2.8789-3.4375-5.1406-7.3477-6.6836-11.555-0.058594-0.21484-0.17969-0.73438-0.039063-0.94141zm-159.77-0.59766-0.003906 0.003906c2.9883 1.2578 6.332 1.3711 9.3945 0.32031 0.625-0.15234 1.3984-0.34375 1.5898-0.35938l0.003906-0.003906c0.43359 0.082032 0.82812 0.30859 1.1211 0.64062 0.14062 0.20703 0.023437 0.72656-0.039063 0.94531-1.5469 4.207-3.8047 8.1172-6.6836 11.551l-0.60156 0.79297c-4.0469 5.375-0.64062 27.328 3.6367 38.27 4.918 12.574 10.934 28.422 10.938 28.426v0.003906c0.24609 0.66016 0.62109 1.2656 1.0977 1.7852 6.1289 6.7852 11.316 14.363 15.422 22.531 0.42969 1.0039 1.1406 1.8555 2.0469 2.457 1.5117 1.0078 3.9492 2.6953 6.6602 4.6523 1.625 11.289 1.5117 22.758-0.32812 34.016-1.4492-5.1758-4.2383-9.875-8.082-13.629-4.3867-4.5977-7.8516-9.9922-10.215-15.891-3.7266-8.7031-6.7422-17.695-9.0117-26.891-0.13281-0.70703-0.40234-1.3828-0.78906-1.9883-7.5391-11.992-13.004-25.172-16.164-38.977-1.3906-8.4102-2.3555-16.883-2.8828-25.387 0.007813-3.1094-0.42188-6.1992-1.2812-9.1875-0.99219-3.5938-1.1094-7.375-0.33984-11.023 1.1367-1.4766 2.7148-2.5469 4.5078-3.0547zm-131.48-39.582h41.469v91.77h-41.469z"/>

 </g>
</svg>
