<?xml version="1.0" encoding="UTF-8"?>
<svg width="300pt" height="300pt" version="1.1" viewBox="0 0 700 700" xmlns="http://www.w3.org/2000/svg" xmlns:xlink="http://www.w3.org/1999/xlink">
 
 <g>
  <path d="m605.37 90.734-0.078125-0.074219c-0.09375-0.085937-0.19531-0.19531-0.27734-0.26562-0.21875-0.14453-0.44922-0.27344-0.6875-0.38281-0.64062-0.5-1.4258-0.78125-2.2383-0.8125-0.23047-0.066407-0.46875-0.11328-0.70703-0.14453h-55.723c-0.125 0-0.22656 0.0625-0.34766 0.070312h-0.003906c-0.33594 0-0.67578 0.035156-1.0078 0.097656-0.17578 0.042969-0.34375 0.14844-0.51562 0.20703v0.003906c-0.17969 0.0625-0.35938 0.13281-0.53516 0.21484-8.3203 3.6758-12.84 25.465-13.141 63.348h-25.754c-0.12109-0.28125-0.22656-0.55469-0.35938-0.83984-1.3398-6.1211-9.3359-8.0742-14.086-8.6641-2.4297-1.0703-5.1992-1.0469-7.6094 0.0625-2.0469-1.4922-4.4961-2.332-7.0234-2.4102-6.2305 1.1602-11.762 4.7109-15.406 9.8945-0.32812 0.63281-0.61328 1.2852-0.85156 1.957h-57.621c-4.3594-1.2734-8.7344-2.3633-12.848-3.293-5.6406-1.2773-10.195-2.4414-12.973-3.1797h0.003906c3.3984-4.9531 6.0859-10.359 7.9883-16.059 4.375-12.355 4.3008-25.852-0.21484-38.156-3.0859-8.3125-9.7109-14.816-18.078-17.742-5.2773-2.1406-11.027-2.832-16.66-2.0078-5.6367 0.82812-10.945 3.1484-15.383 6.7188-8.7188 6.7305-12.387 14.633-13.09 28.188v-0.003906c-1.543 12.18 0.39453 24.543 5.5898 35.664 0.46484 0.92969 1.0586 1.957 1.7344 3.0234-2.4375 0.66406-7.6289 2.0273-14.371 3.5547-4.1094 0.92578-8.4844 2.0195-12.848 3.293h-57.621c-0.24219-0.66797-0.52344-1.3203-0.85156-1.9531-3.6445-5.1836-9.1758-8.7383-15.406-9.8984-2.5312 0.078125-4.9805 0.91797-7.0234 2.4102-2.3789-1.0898-5.1094-1.1289-7.5195-0.10938-4.7305 0.20313-9.2188 2.1719-12.57 5.5195-0.83984 1.0664-1.4258 2.3086-1.7227 3.6289-0.11719 0.125-0.23438 0.26562-0.34766 0.39844l-27.297 0.003906c-0.30078-37.879-4.8203-59.672-13.141-63.348-0.17578-0.082032-0.35156-0.15234-0.53516-0.21484-0.17578-0.058594-0.33984-0.16406-0.51562-0.20703v-0.003906c-0.33594-0.066406-0.67969-0.097656-1.0195-0.10156-0.11719-0.007813-0.21875-0.066406-0.33594-0.066406h-55.727c-0.23828 0.03125-0.47266 0.078124-0.70313 0.14062-0.41797 0.035157-0.83203 0.11719-1.2305 0.25-0.35547 0.14844-0.69141 0.33984-1.0039 0.5625-0.24219 0.10938-0.47266 0.23828-0.69531 0.38672-0.082031 0.070313-0.18359 0.17969-0.27734 0.26562l-0.078125 0.074219c-2.9492 2.9141-10.82 15.684-10.82 68.852 0 59.211 5.7539 64.656 7.918 66.707 0.64063 0.60547 1.3906 1.0781 2.2109 1.3984 0.48438 0.16797 0.99219 0.27344 1.5078 0.30859 0.21875 0.058594 0.44531 0.10156 0.67188 0.13672h55.73-0.003906c0.54688 0 1.0859-0.078125 1.6094-0.23438 0.14844-0.042969 0.32422-0.125 0.48438-0.1875l0.14453-0.058594c4.9961-2.0312 14.887-12.602 15.75-63.461h24.34c0.22656 2.6484 0.77344 5.2578 1.6328 7.7695 1.1875 3.6094 5.5195 12.918 10.539 23.691 3.2422 6.9688 6.6523 14.285 9.293 20.258h-0.003907c5.7383 11.25 13.75 21.184 23.531 29.176 5.3789 4.5469 12.07 7.2617 19.098 7.7422 0.25391 0 0.50391-0.003906 0.74219-0.023437 16.168-0.90234 27.293-20.289 28.949-23.352v0.003907c1.1016-1.4688 2.0625-3.0352 2.875-4.6836 1.3594 3.7617 2.4922 7.5977 3.3828 11.496 1.9961 9.4492 2.4375 19.164 1.2969 28.754-2.8516 4.5625-7.1836 8.0078-12.27 9.7617-10.125 4.1523-19.859 9.1953-29.098 15.066-7.6016 3.5547-13.785 9.5625-17.566 17.059-6.75 11.406-5.5742 26.387 3.5 44.531 4.2305 8.4609 9.3125 19.18 13.82 28.832h-31.578c-1.7891 0-3.4688 0.85156-4.5195 2.2969l-70.469 96.383-0.003906-0.003906c-1.2461 1.7031-1.4258 3.9609-0.47266 5.8398 0.95313 1.8828 2.8828 3.0664 4.9922 3.0664h397.96c2.1094 0 4.0391-1.1836 4.9922-3.0664 0.95703-1.8789 0.77344-4.1367-0.47266-5.8398l-70.469-96.379c-1.0547-1.4453-2.7344-2.2969-4.5195-2.2969h-31.578c4.5039-9.6523 9.5859-20.371 13.82-28.832 9.0742-18.145 10.25-33.125 3.5-44.531h-0.003907c-3.7773-7.4961-9.9648-13.5-17.562-17.059-9.2383-5.8711-18.973-10.91-29.098-15.066-5.0859-1.7539-9.4141-5.1953-12.273-9.7539-1.1367-9.5938-0.69922-19.309 1.2969-28.762 0.89453-3.8945 2.0234-7.7344 3.3828-11.492 0.77344 1.5469 1.6719 3.0234 2.6875 4.418 1.625 4.168 10.426 23.891 31.516 23.891 24.543 0 35.652-25.105 40.992-37.176l3.9648-8.918c7.4414-16.707 12.809-28.887 14.086-33.484l0.5-1.7266 0.003906-0.003906c0.78906-2.4727 1.3359-5.0117 1.6328-7.5859h23.969c0.86328 50.863 10.754 61.434 15.75 63.461l0.14453 0.058594c0.16016 0.0625 0.33203 0.14062 0.48438 0.1875v-0.003906c0.51953 0.16016 1.0625 0.23828 1.6094 0.23828h55.727c0.22656-0.035157 0.45313-0.078125 0.67188-0.13672 0.51562-0.035156 1.0234-0.14062 1.5078-0.30859 0.82031-0.32031 1.5703-0.79297 2.2109-1.3984 2.1641-2.0508 7.918-7.4961 7.918-66.707 0-53.168-7.875-65.938-10.82-68.852zm-48.762 126.2c3.6914-13.586 4.6875-37.43 4.7344-58.309l0.007812-0.03125-0.007812-0.03125c0-0.50781 0.007812-1.0234 0.007812-1.5273 0-26.277-2.0859-45.578-5.9805-56.781h42.949c2.0703 4.4531 6.6758 18.91 6.6758 59.332 0 40.254-2.7383 53.352-4.0703 57.352zm-10.988-110.63c3.4648 15.312 4.9805 31.004 4.5078 46.695h-8.832c-0.46484-15.684 0.98828-31.363 4.3242-46.695zm-87.02 57.895c0.49219 1.2656 1.168 2.4492 2.0078 3.5156 2.9609 3.0156 6.3008 5.6328 9.9336 7.7891-3.2461 5.6562-8.6719 14.945-11.672 19.145-1.5625 2.1836-3.2578 4.8008-4.8711 7.2969-0.39453 0.60547-0.83594 1.2891-1.2891 1.9844-1.3828-2.3242-2.582-4.3438-2.7891-4.6953h-0.003906c-5.8672-11.305-12.82-22.016-20.762-31.98-1.0469-1.1016-2.1758-2.1211-3.3789-3.0547zm-107.78 5.332c-3.9375 0.30859-7.8164-1.1055-10.637-3.8711-2.2734-2.7656-3.6328-6.168-3.8945-9.7422 4.0859 3.4102 9.2031 5.3398 14.523 5.4766h0.011719c5.1211-0.03125 10.125-1.5625 14.387-4.4023-0.38672 3.1914-1.6914 6.2031-3.7578 8.668-2.8164 2.7695-6.6953 4.1797-10.633 3.8711zm24.582-62.605c0.52344 6.7344-0.30469 13.508-2.4336 19.914-2.4023 7.0156-9.3633 23.336-22.152 23.352h-0.003906c-7.3672 0-13.496-8.9414-15.062-12.074-3.9258-8.3477-5.5-17.613-4.5586-26.789 7.0234-3.1797 26.266-10.41 44.211-4.4023zm-35.324-18.785c3.9297-3.0156 8.7227-4.6914 13.672-4.7812 2.3906-0.019531 4.7578 0.46875 6.9414 1.4336 4.9492 1.4688 9.0391 4.9688 11.246 9.6328-13.199-2.1016-26.719-0.66016-39.18 4.1758 1.1562-4.2305 3.7461-7.9258 7.3203-10.461zm-88.324 111.05c-0.13672 0.23047-0.83984 1.4219-1.7891 3.0195-1.7734-3.0664-3.8242-6.4258-5.7812-9.1602-3.0312-4.2422-8.8867-12.539-12.621-17.84h-0.003906c3.4688-2.0781 6.6523-4.5938 9.4727-7.4922 0.83984-1.0664 1.5195-2.25 2.0117-3.5156h32.824c-1.2031 0.93359-2.332 1.9531-3.3828 3.0547-7.9297 9.9492-14.875 20.641-20.73 31.934zm-152.68 17.75c-1.332-4-4.0703-17.098-4.0703-57.352 0-40.422 4.6055-54.875 6.6758-59.332l42.949 0.003906c-3.8984 11.203-5.9805 30.504-5.9805 56.781 0 0.50391 0.003906 1.0195 0.007812 1.5273l-0.007812 0.03125 0.007812 0.03125c0.046875 20.879 1.043 44.723 4.7344 58.309zm55.301-110.63c3.3359 15.332 4.7891 31.012 4.3242 46.695h-8.832c-0.47266-15.691 1.043-31.383 4.5078-46.695zm-1.1797 103.57h-0.003907c-2.3867-15.105-3.4883-30.387-3.293-45.68h8.7539c0.36328 15.41-1.4727 30.789-5.4609 45.68zm105.18 31.758h-0.003906c-4.4258-0.52734-8.6055-2.3164-12.047-5.1523-8.4844-6.8516-15.453-15.398-20.453-25.098-2.6641-6.0312-6.1055-13.422-9.3828-20.453-4.4609-9.582-9.0742-19.492-10.055-22.465-1.6719-5.082-1.2031-7.5352-0.83594-8.1641 0.035157-0.019531 0.054688-0.050781 0.089844-0.070312h0.003906c0.42969-0.25391 0.82422-0.56641 1.168-0.92578 0.10156-0.10156 0.23438-0.16797 0.32812-0.27344h0.003906c0.41797-0.48047 0.75-1.0312 0.98438-1.6211 0.050781-0.125 0.046874-0.26953 0.085937-0.39844h0.003906c0.15625-0.44141 0.25781-0.90234 0.30078-1.3711 1.6953-0.64062 3.4805-1.0195 5.2891-1.1211 0.57422-0.03125 1.1367-0.14453 1.6719-0.34375 0.49609 0.30078 0.96875 0.64453 1.4023 1.0273 1.457 1.3555 3.5195 1.8398 5.4258 1.2695 1.9023-0.57031 3.3633-2.1055 3.8359-4.0352 2.2734 1.0234 4.3125 2.5078 5.9766 4.3633 0.42578 0.67969 0.66406 1.4609 0.68359 2.2656 0.011719 0.59766-0.1875 1.1797-0.56641 1.6445-3.5742 3.0625-7.4492 5.75-11.566 8.0273-1.3477 0.79297-2.3047 2.1172-2.6328 3.6445-0.33203 1.5312-0.007813 3.125 0.89062 4.4062 0 0 11.402 16.199 16.086 22.762h0.003906c3.5469 5.3086 6.7891 10.816 9.7109 16.492 0.92578 1.8125 2.7617 2.9766 4.7969 3.043 0.0625 0.003906 0.125 0.003906 0.1875 0.003906h-0.003906c1.9688 0 3.793-1.0312 4.8047-2.7188 0.23828-0.39453 0.79688-1.3398 1.5-2.5156 4.6875 6.7734 11.137 12.141 18.652 15.516-3.9219 5.4062-10.055 11.906-16.344 12.262zm-12.168 70.988c2.5391-5.2617 6.6953-9.5742 11.859-12.305 16.395-4.1992 28.984 7.4258 34.809 18.684h-0.003906c2.4961 5.6211 4.4062 11.484 5.707 17.496-5.9141-1.0664-11.676-2.8477-17.156-5.3008-2.043-0.94141-4.4453-0.57031-6.1094 0.94141-1.6602 1.5078-2.2617 3.8672-1.5195 5.9844 3.1953 9.2773 5.4453 18.852 6.7227 28.582 1.3867 10.977 3.5742 21.84 6.5469 32.5-4.2031 0.44531-8.4492 0.13281-12.543-0.92188-1.3086-2.875-3.7148-8.1445-6.6914-14.582l-0.003906-0.011719c-5.2578-11.371-12.207-26.199-17.734-37.254-7.2617-14.52-8.5664-25.898-3.8828-33.812zm104.54 25.934 0.074219-0.015626 0.070312 0.015626c14.719 0.035156 29.281 3.043 42.809 8.8438 0.24219 0.070312 0.48828 0.125 0.73828 0.16016 0.30078 0.13281 0.60938 0.23438 0.92969 0.30859 0.1875 0.023437 0.39062 0.003906 0.57812 0.023437 0.03125 0 0.0625 0.019531 0.097656 0.019531l0.0625-0.015625v0.003907c6.0312 0.28906 12.066-0.53516 17.801-2.4297-1.8906 6.6367-3.2109 13.422-3.9453 20.281-0.51172 4.8828-1.3047 9.7344-2.3711 14.527h-113.54c-1.0703-4.793-1.8633-9.6445-2.375-14.527-0.73438-6.8594-2.0547-13.645-3.9453-20.281 5.7344 1.8945 11.77 2.7188 17.801 2.4297l0.0625 0.015624c0.03125 0 0.0625-0.019531 0.097656-0.019531 0.19141-0.019531 0.39453 0 0.58203-0.023437l-0.003906-0.003906c0.33203-0.074219 0.65234-0.17969 0.96094-0.31641 0.24219-0.039062 0.48047-0.089843 0.71484-0.15625 13.523-5.8125 28.082-8.8203 42.805-8.8398zm76.473 71.188c2.918 7.043 7.9453 13.012 14.391 17.086 12.363 8.2031 12.918 11.609 12.938 11.707h-0.003906c-0.67969 2.5156-2.6445 4.4805-5.1602 5.1641-12.469 0-14.914-1.5039-22.293-7.2422-5.3672-3.9766-11.281-7.1523-17.562-9.4336 0.52344-5.6602 1.3477-11.289 2.4688-16.859 5.0586 0.77344 10.215 0.63281 15.223-0.42187zm-152.8 0c5.0078 1.0547 10.164 1.1953 15.223 0.42187 1.1211 5.5703 1.9453 11.199 2.4688 16.859-6.2773 2.2812-12.195 5.457-17.562 9.4336-7.375 5.7383-9.8203 7.2422-22.289 7.2422h-0.003907c-2.5-0.67969-4.4609-2.625-5.1641-5.1211 0.019531-0.14062 0.57422-3.5508 12.938-11.754l0.003906 0.003906c6.4453-4.0742 11.473-10.043 14.387-17.086zm202.07-18.266 62.281 85.18h-375.89l62.285-85.18h33.93c2.5469 5.5273 4.5703 9.9648 5.5859 12.199h-0.003906c-1.7578 5.7969-5.6211 10.727-10.828 13.82-12.41 8.2305-17.945 14.715-17.945 21.039 0.36328 4.2148 2.2031 8.168 5.1992 11.164 2.9922 2.9922 6.9453 4.832 11.16 5.1992 10.645 1.0625 21.242-2.4258 29.168-9.6055 5.418-3.8906 11.422-6.8828 17.789-8.8633 2.1055-0.61719 3.6562-2.4102 3.9688-4.582-0.13672-10.133-1.418-20.215-3.8125-30.059-0.011719-0.054687-0.054688-0.09375-0.070313-0.14453-0.015625-0.070312 0.003907-0.13672-0.015625-0.20312-0.027344-0.09375-1.207-4.2539-2.6328-9.9648h108.34c-1.4297 5.7109-2.6055 9.8672-2.6328 9.9648-0.019531 0.070313 0 0.13672-0.015625 0.20312-0.011718 0.054688-0.058594 0.09375-0.070312 0.14453-2.3984 9.8438-3.6758 19.926-3.8164 30.059 0.30859 2.1758 1.8633 3.9688 3.9766 4.582 6.3672 1.9766 12.371 4.9688 17.781 8.8633 7.9297 7.1797 18.523 10.672 29.168 9.6055 4.2188-0.36719 8.168-2.207 11.164-5.1992 2.9922-2.9961 4.832-6.9492 5.1992-11.164 0-6.3203-5.5352-12.809-17.945-21.039-5.207-3.0938-9.0742-8.0195-10.836-13.812 1.0156-2.2305 3.0391-6.6719 5.5898-12.207zm-32.984-91.176c5.2031 2.7109 9.3867 7.0352 11.93 12.32 4.6836 7.9141 3.3789 19.293-3.8828 33.812-5.5273 11.055-12.477 25.883-17.734 37.254l-0.003906 0.011719c-2.9766 6.4336-5.3828 11.707-6.6914 14.578v0.003906c-4.0898 1.0508-8.3398 1.3633-12.543 0.91797 2.9727-10.656 5.1602-21.52 6.5469-32.496 1.2773-9.7305 3.5312-19.305 6.7266-28.582 0.73828-2.1172 0.14063-4.4766-1.5234-5.9844-1.6641-1.5117-4.0664-1.8828-6.1055-0.94141-5.4844 2.4531-11.246 4.2305-17.156 5.3008 1.2969-6.0156 3.2109-11.879 5.7031-17.504 5.8125-11.238 18.371-22.828 34.734-18.691zm-28.836-14.957c3.6133 1.3477 7.1367 2.9258 10.551 4.7188-11.602 4.1211-21.094 12.676-26.398 23.785-3.0156 6.6758-5.3086 13.656-6.8398 20.82-13.168-4.7812-27.062-7.2539-41.07-7.3086l-0.015625-0.003906h-0.070312-0.070313l-0.015625 0.003906c-14.012 0.054687-27.906 2.5273-41.074 7.3086-1.5273-7.1641-3.8203-14.141-6.8398-20.816-5.3008-11.113-14.793-19.668-26.395-23.793 3.4141-1.793 6.9375-3.3672 10.551-4.7148 6.5156-2.3125 12.215-6.4844 16.383-11.996 15.465 4.3867 31.398 6.9062 47.461 7.5 16.062-0.59375 31.996-3.1133 47.457-7.5039 4.1719 5.5156 9.8672 9.6875 16.387 12zm-7.7891-78.391c-4.9141 8.3008-8.418 17.355-10.359 26.805-2.0586 9.5039-2.6914 19.266-1.875 28.957-14.285 4.0117-28.992 6.3398-43.82 6.9336-14.828-0.59375-29.535-2.9219-43.82-6.9336 0.8125-9.6914 0.18359-19.453-1.8789-28.957-1.9414-9.4492-5.4414-18.508-10.359-26.805-1.2383-1.8555-3.4648-2.7969-5.6602-2.3984-2.1953 0.39844-3.9453 2.0625-4.4531 4.2383-0.90625 3.7969-2.1992 7.4883-3.8594 11.02-8.0898-3.1484-14.598-9.3867-18.086-17.336 5.1055-9.7461 11.125-18.984 17.98-27.59 7.5273-8.082 28.113-12.73 34.879-14.258 3.793-0.85938 7.1055-1.668 9.7422-2.3359 0.67969 5.5 2.9648 10.676 6.5781 14.875 5.1094 4.8555 11.887 7.5586 18.938 7.5586 7.0469 0 13.824-2.7031 18.938-7.5586 3.6094-4.1992 5.8984-9.375 6.5742-14.875 2.6406 0.66797 5.9492 1.4766 9.7461 2.3359 6.7656 1.5273 27.348 6.168 34.875 14.258h0.003907c6.8555 8.6055 12.875 17.844 17.98 27.59-3.4922 7.9492-10 14.184-18.09 17.336-1.6602-3.5312-2.9531-7.2227-3.8555-11.02-0.50781-2.1758-2.2578-3.8398-4.457-4.2383-2.1953-0.39844-4.418 0.54297-5.6602 2.3984zm86.938-38.332-0.54297 1.8828c-1.1562 4.1562-8.0156 19.555-13.531 31.926l-3.9766 8.9531c-7.0078 15.844-15.586 30.504-30.746 30.504l0.003907 0.003906c-3.9336-0.18359-7.75-1.4062-11.055-3.5469-3.3086-2.1367-5.9844-5.1172-7.7656-8.6289 7.8125-3.375 14.523-8.8672 19.379-15.855 0.69922 1.1797 1.2617 2.1172 1.5 2.5156v-0.003906c1.082 1.7109 2.9336 2.7852 4.9531 2.8711h0.13281c3.9766 0 5.9805-3.0938 11.234-11.223 1.5195-2.3477 3.1094-4.8125 4.5781-6.8672 4.7969-6.7227 14.57-24.105 14.984-24.844h0.003906c1.4883-2.6562 0.58203-6.0195-2.043-7.5625-4.1172-2.2852-7.9922-4.9766-11.57-8.0352-0.37891-0.46484-0.57812-1.0469-0.56641-1.6445 0.023438-0.80469 0.26172-1.5898 0.6875-2.2695 1.6641-1.8477 3.6953-3.332 5.9609-4.3555l0.019531 0.011719c0.48047 1.918 1.9375 3.4375 3.8281 4.0039 1.8945 0.57031 3.9453 0.10156 5.4062-1.2305 0.44141-0.39453 0.91797-0.74609 1.4258-1.0508 0.46484 0.17188 0.95312 0.28125 1.4453 0.32812 1.9961 0.17578 3.9609 0.61719 5.8359 1.3125 0.046874 0.12891 0.14062 0.23438 0.19531 0.35938 0.035156 0.082031 0.027344 0.16797 0.066406 0.24609 1.8867 3.8359 1.9453 8.3203 0.15625 12.203zm56.277-4.4297 0.003906 0.003906c0.19531 15.293-0.90625 30.574-3.293 45.68-3.9883-14.887-5.8242-30.27-5.4609-45.68z"/>
 </g>
</svg>
